<svg xmlns="http://www.w3.org/2000/svg" x="0px" y="0px" width="48" height="48" viewBox="0 0 48 48">
<path fill="#4e342e" d="M35,44c0,0-5.874-2-10.874-2S13,44,13,44l-1-12h25L35,44z"></path><path fill="#ffa726" d="M14.126 28c0 2.208-1.791 4-4 4s-4-1.792-4-4c0-2.209 1.791-4 4-4S14.126 25.791 14.126 28M42.126 28c0 2.208-1.791 4-4 4s-4-1.792-4-4c0-2.209 1.791-4 4-4S42.126 25.791 42.126 28"></path><path fill="#ffaa45" d="M38.126,18c0-12.725-28-8.285-28,0v9c0,8.286,6.269,15,14,15s14-6.714,14-15V18z"></path><path fill="#784719" d="M32,26c0,1.106-0.896,2-2,2c-1.106,0-2-0.894-2-2c0-1.105,0.894-2,2-2C31.104,24,32,24.895,32,26 M20,26c0-1.105-0.896-2-2-2c-1.106,0-2,0.895-2,2c0,1.106,0.894,2,2,2C19.104,28,20,27.106,20,26"></path><path fill="#795548" d="M24.126,4C15.621,4,3.126,9,3,36l10,8V24l17-9l5.001,7l0.125,22L45,36c0-12-0.417-29-14.874-29l-2-3H24.126z"></path><path fill="#f27f03" d="M19.126,35h10c0,0-2,3-5,3S19.126,35,19.126,35z"></path>
</svg>