<svg xmlns="http://www.w3.org/2000/svg" x="0px" y="0px" width="48" height="48" viewBox="0 0 48 48">
<path fill="#c16e14" d="M14,27c0,2.208-1.791,4-4,4s-4-1.792-4-4c0-2.209,1.791-4,4-4S14,24.791,14,27 M42,27c0-2.209-1.791-4-4-4s-4,1.791-4,4c0,2.208,1.791,4,4,4S42,29.208,42,27"></path><path fill="#e5852e" d="M8.953,20.083c-0.07-12.724,29.954-8.451,30-0.166l0.055,10C39.054,38.202,32.375,44.954,24.091,45S9.054,38.368,9.008,30.083L8.953,20.083z"></path><path fill="#6d4c41" d="M40.891,19.338C40.417,13.365,38.33,7.482,31,6l-2-3h-5C14.771,3,7,10.481,7,21v3.4l3,3.6v-6l21-7l7,6v7l3-3.6V21C41,20.436,40.957,19.883,40.891,19.338"></path><path fill="#212121" d="M33,28c0,1.106-0.895,2-2,2c-1.106,0-2-0.894-2-2c0-1.105,0.894-2,2-2C32.105,26,33,26.895,33,28 M19,28c0-1.105-0.896-2-2-2c-1.106,0-2,0.895-2,2c0,1.106,0.894,2,2,2C18.104,30,19,29.106,19,28"></path><path fill="#ffab91" d="M19,37h10c0,0-2,3-5,3S19,37,19,37z"></path>
</svg>